<mxfile host="app.diagrams.net" agent="Mozilla/5.0 (Macintosh; Intel Mac OS X 10_15_7) AppleWebKit/605.1.15 (KHTML, like Gecko) Version/18.1 Safari/605.1.15" version="26.2.14">
  <diagram id="C5RBs43oDa-KdzZeNtuy" name="Page-1">
    <mxGraphModel dx="1215" dy="1913" grid="1" gridSize="10" guides="1" tooltips="1" connect="1" arrows="1" fold="1" page="1" pageScale="1" pageWidth="827" pageHeight="1169" math="0" shadow="0">
      <root>
        <mxCell id="WIyWlLk6GJQsqaUBKTNV-0" />
        <mxCell id="WIyWlLk6GJQsqaUBKTNV-1" parent="WIyWlLk6GJQsqaUBKTNV-0" />
        <mxCell id="zvI-FopDQQD72xt2QUHd-2" value="Application" style="swimlane;fontStyle=0;childLayout=stackLayout;horizontal=1;startSize=30;horizontalStack=0;resizeParent=1;resizeParentMax=0;resizeLast=0;collapsible=1;marginBottom=0;whiteSpace=wrap;html=1;" vertex="1" parent="WIyWlLk6GJQsqaUBKTNV-1">
          <mxGeometry x="370" y="-20" width="140" height="90" as="geometry" />
        </mxCell>
        <mxCell id="zvI-FopDQQD72xt2QUHd-3" value="+ launch()" style="text;strokeColor=none;fillColor=none;align=left;verticalAlign=middle;spacingLeft=4;spacingRight=4;overflow=hidden;points=[[0,0.5],[1,0.5]];portConstraint=eastwest;rotatable=0;whiteSpace=wrap;html=1;" vertex="1" parent="zvI-FopDQQD72xt2QUHd-2">
          <mxGeometry y="30" width="140" height="30" as="geometry" />
        </mxCell>
        <mxCell id="zvI-FopDQQD72xt2QUHd-4" value="+ start(stage:stage)" style="text;strokeColor=none;fillColor=none;align=left;verticalAlign=middle;spacingLeft=4;spacingRight=4;overflow=hidden;points=[[0,0.5],[1,0.5]];portConstraint=eastwest;rotatable=0;whiteSpace=wrap;html=1;" vertex="1" parent="zvI-FopDQQD72xt2QUHd-2">
          <mxGeometry y="60" width="140" height="30" as="geometry" />
        </mxCell>
        <mxCell id="zvI-FopDQQD72xt2QUHd-9" value="BankAccountApplication" style="swimlane;fontStyle=0;childLayout=stackLayout;horizontal=1;startSize=26;fillColor=none;horizontalStack=0;resizeParent=1;resizeParentMax=0;resizeLast=0;collapsible=1;marginBottom=0;whiteSpace=wrap;html=1;" vertex="1" parent="WIyWlLk6GJQsqaUBKTNV-1">
          <mxGeometry x="370" y="150" width="140" height="52" as="geometry" />
        </mxCell>
        <mxCell id="zvI-FopDQQD72xt2QUHd-30" value="" style="endArrow=open;endFill=1;endSize=12;html=1;rounded=0;entryX=0.429;entryY=1.167;entryDx=0;entryDy=0;entryPerimeter=0;" edge="1" parent="zvI-FopDQQD72xt2QUHd-9" target="zvI-FopDQQD72xt2QUHd-4">
          <mxGeometry width="160" relative="1" as="geometry">
            <mxPoint x="60" as="sourcePoint" />
            <mxPoint x="60" y="-70" as="targetPoint" />
            <Array as="points">
              <mxPoint x="60" y="-40" />
            </Array>
          </mxGeometry>
        </mxCell>
        <mxCell id="zvI-FopDQQD72xt2QUHd-10" value="+ main()" style="text;strokeColor=none;fillColor=none;align=left;verticalAlign=top;spacingLeft=4;spacingRight=4;overflow=hidden;rotatable=0;points=[[0,0.5],[1,0.5]];portConstraint=eastwest;whiteSpace=wrap;html=1;" vertex="1" parent="zvI-FopDQQD72xt2QUHd-9">
          <mxGeometry y="26" width="140" height="26" as="geometry" />
        </mxCell>
        <mxCell id="zvI-FopDQQD72xt2QUHd-14" value="BankAccount" style="swimlane;fontStyle=1;align=center;verticalAlign=top;childLayout=stackLayout;horizontal=1;startSize=26;horizontalStack=0;resizeParent=1;resizeParentMax=0;resizeLast=0;collapsible=1;marginBottom=0;whiteSpace=wrap;html=1;" vertex="1" parent="WIyWlLk6GJQsqaUBKTNV-1">
          <mxGeometry x="510" y="340" width="220" height="220" as="geometry" />
        </mxCell>
        <mxCell id="zvI-FopDQQD72xt2QUHd-15" value="&lt;div&gt;- accountNumberGenerator: int&lt;/div&gt;&lt;div&gt;- accountNumber: int&lt;/div&gt;&lt;div&gt;- balance: double&lt;/div&gt;&lt;div&gt;- transaction: StringBuilder&lt;/div&gt;" style="text;strokeColor=none;fillColor=none;align=left;verticalAlign=top;spacingLeft=4;spacingRight=4;overflow=hidden;rotatable=0;points=[[0,0.5],[1,0.5]];portConstraint=eastwest;whiteSpace=wrap;html=1;" vertex="1" parent="zvI-FopDQQD72xt2QUHd-14">
          <mxGeometry y="26" width="220" height="64" as="geometry" />
        </mxCell>
        <mxCell id="zvI-FopDQQD72xt2QUHd-16" value="" style="line;strokeWidth=1;fillColor=none;align=left;verticalAlign=middle;spacingTop=-1;spacingLeft=3;spacingRight=3;rotatable=0;labelPosition=right;points=[];portConstraint=eastwest;strokeColor=inherit;" vertex="1" parent="zvI-FopDQQD72xt2QUHd-14">
          <mxGeometry y="90" width="220" height="8" as="geometry" />
        </mxCell>
        <mxCell id="zvI-FopDQQD72xt2QUHd-17" value="+ bankAccount()&lt;div&gt;+ bankAccount(double)&lt;/div&gt;&lt;div&gt;+ deposit(double:amount)&lt;/div&gt;&lt;div&gt;+ withdraw(double:amount)&lt;/div&gt;&lt;div&gt;+ getBalance(): double&lt;/div&gt;&lt;div&gt;+ getAccountNumber(): int&lt;/div&gt;&lt;div&gt;+ getStatement(): String&lt;/div&gt;&lt;div&gt;- recordTransaction(String:Transaction)&lt;/div&gt;" style="text;strokeColor=none;fillColor=none;align=left;verticalAlign=top;spacingLeft=4;spacingRight=4;overflow=hidden;rotatable=0;points=[[0,0.5],[1,0.5]];portConstraint=eastwest;whiteSpace=wrap;html=1;" vertex="1" parent="zvI-FopDQQD72xt2QUHd-14">
          <mxGeometry y="98" width="220" height="122" as="geometry" />
        </mxCell>
        <mxCell id="zvI-FopDQQD72xt2QUHd-19" value="BankAccountController" style="swimlane;fontStyle=1;align=center;verticalAlign=top;childLayout=stackLayout;horizontal=1;startSize=26;horizontalStack=0;resizeParent=1;resizeParentMax=0;resizeLast=0;collapsible=1;marginBottom=0;whiteSpace=wrap;html=1;" vertex="1" parent="WIyWlLk6GJQsqaUBKTNV-1">
          <mxGeometry x="50" y="340" width="320" height="230" as="geometry" />
        </mxCell>
        <mxCell id="zvI-FopDQQD72xt2QUHd-20" value="- myAccountsList: ArrayList&amp;lt;BankAccount&amp;gt;&lt;div&gt;- myAccountsNumbers: ArrayList&amp;lt;Integer&amp;gt;&lt;/div&gt;&lt;div&gt;- balanceLabel: Label&lt;/div&gt;&lt;div&gt;- amountBox: TextField&lt;/div&gt;&lt;div&gt;- bankAccountsDropDown: ComboBox&amp;lt;Integer&amp;gt;&lt;/div&gt;&lt;div&gt;&lt;br&gt;&lt;/div&gt;" style="text;strokeColor=none;fillColor=none;align=left;verticalAlign=top;spacingLeft=4;spacingRight=4;overflow=hidden;rotatable=0;points=[[0,0.5],[1,0.5]];portConstraint=eastwest;whiteSpace=wrap;html=1;" vertex="1" parent="zvI-FopDQQD72xt2QUHd-19">
          <mxGeometry y="26" width="320" height="84" as="geometry" />
        </mxCell>
        <mxCell id="zvI-FopDQQD72xt2QUHd-21" value="" style="line;strokeWidth=1;fillColor=none;align=left;verticalAlign=middle;spacingTop=-1;spacingLeft=3;spacingRight=3;rotatable=0;labelPosition=right;points=[];portConstraint=eastwest;strokeColor=inherit;" vertex="1" parent="zvI-FopDQQD72xt2QUHd-19">
          <mxGeometry y="110" width="320" height="8" as="geometry" />
        </mxCell>
        <mxCell id="zvI-FopDQQD72xt2QUHd-22" value="- generateInfoAlert(InfoMsg:String)&lt;div&gt;- generateErrorAlert(ErrorMsg:String)&lt;br&gt;&lt;div&gt;# createBankAccountClick()&lt;/div&gt;&lt;div&gt;# onDepositButtonClick()&lt;/div&gt;&lt;div&gt;# onWithdrawButtonClick()&lt;/div&gt;&lt;div&gt;# onViewStatementButtonClick()&lt;/div&gt;&lt;div&gt;# onDropDownSelection()&lt;/div&gt;&lt;/div&gt;" style="text;strokeColor=none;fillColor=none;align=left;verticalAlign=top;spacingLeft=4;spacingRight=4;overflow=hidden;rotatable=0;points=[[0,0.5],[1,0.5]];portConstraint=eastwest;whiteSpace=wrap;html=1;" vertex="1" parent="zvI-FopDQQD72xt2QUHd-19">
          <mxGeometry y="118" width="320" height="112" as="geometry" />
        </mxCell>
        <mxCell id="zvI-FopDQQD72xt2QUHd-29" value="" style="endArrow=open;endFill=1;endSize=12;html=1;rounded=0;" edge="1" parent="WIyWlLk6GJQsqaUBKTNV-1">
          <mxGeometry width="160" relative="1" as="geometry">
            <mxPoint x="370" y="450" as="sourcePoint" />
            <mxPoint x="510" y="450" as="targetPoint" />
          </mxGeometry>
        </mxCell>
      </root>
    </mxGraphModel>
  </diagram>
</mxfile>
